<svg width="11" height="7" viewBox="0 0 11 7" fill="none" xmlns="http://www.w3.org/2000/svg">
<path d="M7.6711 0.525779C7.6711 0.816159 7.9065 1.05156 8.19688 1.05156H8.51235L5.56798 3.99593L3.83291 2.26085C3.62964 2.05759 3.30008 2.05759 3.09682 2.26085L0.152449 5.20522C-0.0508165 5.40849 -0.0508165 5.73805 0.152449 5.94131C0.355715 6.14458 0.685275 6.14458 0.888541 5.94131L3.46486 3.36499L5.19994 5.10006C5.4032 5.30333 5.73276 5.30333 5.93603 5.10006L9.24844 1.78765V2.10312C9.24844 2.3935 9.48384 2.6289 9.77422 2.6289C10.0646 2.6289 10.3 2.3935 10.3 2.10312V0.426563C10.3 0.190979 10.109 0 9.87344 0H8.19688C7.9065 1.08421e-08 7.6711 0.235399 7.6711 0.525779Z" fill="#00BA00"/>
</svg>
