<svg width="23" height="26" viewBox="0 0 23 26" fill="none" xmlns="http://www.w3.org/2000/svg">
<path d="M20.5495 13.8948V9.13305C20.5495 6.71082 19.5872 4.38779 17.8745 2.67501C16.1617 0.96223 13.8386 0 11.4164 0C8.99417 0 6.67115 0.96223 4.95837 2.67501C3.24559 4.38779 2.28336 6.71082 2.28336 9.13305V13.8925C1.80568 14.057 1.37295 14.3306 1.01957 14.6917C0.693986 15.0072 0.435774 15.3855 0.260546 15.8036C0.0853181 16.2218 -0.00328528 16.6711 9.30957e-05 17.1245C9.30957e-05 18.0328 0.360929 18.9039 1.00322 19.5462C1.64551 20.1885 2.51665 20.5494 3.42499 20.5494H5.82241C6.08444 21.8397 6.7845 22.9999 7.80399 23.8331C8.82348 24.6664 10.0997 25.1216 11.4164 25.1216C12.7331 25.1216 14.0093 24.6664 15.0288 23.8331C16.0483 22.9999 16.7484 21.8397 17.0104 20.5494H19.4078C20.3148 20.5449 21.1833 20.1826 21.8246 19.5413C22.4659 18.9 22.8282 18.0314 22.8327 17.1245C22.8319 16.4164 22.612 15.7258 22.2032 15.1476C21.7944 14.5694 21.2168 14.1318 20.5495 13.8948ZM11.4164 22.8326C10.7083 22.8318 10.0178 22.6119 9.43955 22.2031C8.86133 21.7943 8.42372 21.2167 8.18673 20.5494H14.6461C14.4091 21.2167 13.9715 21.7943 13.3933 22.2031C12.8151 22.6119 12.1245 22.8318 11.4164 22.8326ZM20.199 17.9385C20.0959 18.0434 19.9727 18.1265 19.8368 18.1828C19.7008 18.2391 19.555 18.2675 19.4078 18.2661H3.42499C3.12221 18.2661 2.83183 18.1458 2.61773 17.9317C2.40364 17.7176 2.28336 17.4273 2.28336 17.1245C2.28306 16.972 2.314 16.8212 2.37428 16.6812C2.43456 16.5412 2.5229 16.415 2.63384 16.3105C2.73693 16.2055 2.86012 16.1224 2.99605 16.0661C3.13198 16.0098 3.27787 15.9815 3.42499 15.9828C3.72777 15.9828 4.01815 15.8626 4.23224 15.6485C4.44634 15.4344 4.56662 15.144 4.56662 14.8412V9.13305C4.56662 8.23353 4.74379 7.34281 5.08803 6.51175C5.43226 5.6807 5.93682 4.92558 6.57288 4.28952C7.20894 3.65346 7.96405 3.14891 8.79511 2.80467C9.62616 2.46044 10.5169 2.28326 11.4164 2.28326C12.3159 2.28326 13.2067 2.46044 14.0377 2.80467C14.8688 3.14891 15.6239 3.65346 16.2599 4.28952C16.896 4.92558 17.4006 5.6807 17.7448 6.51175C18.089 7.34281 18.2662 8.23353 18.2662 9.13305V14.8412C18.2662 15.144 18.3865 15.4344 18.6006 15.6485C18.8147 15.8626 19.1051 15.9828 19.4078 15.9828C19.7106 15.9828 20.001 16.1031 20.2151 16.3172C20.4292 16.5313 20.5495 16.8217 20.5495 17.1245C20.5498 17.2769 20.5188 17.4278 20.4585 17.5678C20.3983 17.7078 20.3099 17.8339 20.199 17.9385Z" fill="#6B7280"/>
</svg>
