<svg width="25" height="22" viewBox="0 0 25 22" fill="none" xmlns="http://www.w3.org/2000/svg">
<path d="M12.2603 21.4069C12.0994 21.4069 11.9382 21.3671 11.7921 21.2869C11.4808 21.1159 11.2873 20.789 11.2873 20.4339V18.4879C11.2873 17.9514 10.8508 17.5148 10.3143 17.5148H8.75742C3.92858 17.5148 0 13.5863 0 8.75742C0 3.92858 3.92858 0 8.75742 0H16.1526C20.9814 0 24.91 3.92858 24.91 8.75742C24.91 8.79766 24.9098 8.8377 24.9094 8.87764C24.8864 11.2365 24.1698 13.0043 22.586 14.6099C21.1367 16.079 19.0191 17.3851 16.088 19.1929C15.101 19.8017 13.9822 20.4917 12.7827 21.2548C12.6237 21.356 12.4422 21.4069 12.2603 21.4069ZM8.75742 1.94609C5.00166 1.94609 1.94609 5.00166 1.94609 8.75742C1.94609 12.5132 5.00166 15.5688 8.75742 15.5688H10.3143C11.9239 15.5688 13.2334 16.8783 13.2334 18.4879V18.6715C13.8823 18.2669 14.4963 17.8882 15.0664 17.5365C17.8817 15.8001 19.9158 14.5455 21.2006 13.2432C22.4345 11.9924 22.9452 10.7221 22.9634 8.85877C22.9637 8.82515 22.9639 8.79133 22.9639 8.75742C22.9639 5.00166 19.9083 1.94609 16.1526 1.94609H8.75742Z" fill="#6B7280"/>
<path d="M16.1525 7.78447H8.75735C8.21993 7.78447 7.7843 7.34884 7.7843 6.81143C7.7843 6.27401 8.21993 5.83838 8.75735 5.83838H16.1525C16.6899 5.83838 17.1256 6.27401 17.1256 6.81143C17.1256 7.34884 16.6899 7.78447 16.1525 7.78447Z" fill="#6B7280"/>
<path d="M16.1525 11.6766H8.75735C8.21993 11.6766 7.7843 11.2409 7.7843 10.7035C7.7843 10.1661 8.21993 9.73047 8.75735 9.73047H16.1525C16.6899 9.73047 17.1256 10.1661 17.1256 10.7035C17.1256 11.2409 16.6899 11.6766 16.1525 11.6766Z" fill="#6B7280"/>
</svg>
