<svg width="24" height="24" viewBox="0 0 24 24" fill="none" xmlns="http://www.w3.org/2000/svg">
<path d="M3.77712 15.567C4.41355 16.169 5.10688 16.7079 5.84738 17.1761L3.88124 19.1422C3.72185 19.3073 3.63366 19.5283 3.63565 19.7577C3.63764 19.9871 3.72967 20.2066 3.8919 20.3688C4.05413 20.5311 4.2736 20.6231 4.50302 20.6251C4.73244 20.6271 4.95347 20.5389 5.1185 20.3795L10.743 14.7549L19.9936 5.50439C20.0772 5.42367 20.1438 5.32712 20.1897 5.22036C20.2356 5.11361 20.2597 4.99879 20.2607 4.88261C20.2617 4.76643 20.2396 4.65121 20.1956 4.54367C20.1516 4.43614 20.0866 4.33844 20.0045 4.25628C19.9223 4.17413 19.8246 4.10915 19.7171 4.06516C19.6095 4.02116 19.4943 3.99902 19.3781 4.00003C19.262 4.00104 19.1471 4.02518 19.0404 4.07104C18.9336 4.1169 18.8371 4.18356 18.7564 4.26713L16.6975 6.32602C15.7145 5.75133 14.6465 5.33637 13.5334 5.09663C12.8646 4.95688 12.1832 4.88622 11.4999 4.88576C4.93738 4.88576 1.2676 11.1858 1.11447 11.4527C1.03945 11.5845 1 11.7337 1 11.8854C1 12.0371 1.03945 12.1862 1.11447 12.3181C1.84739 13.519 2.7435 14.6124 3.77712 15.567ZM9.74991 11.8858C9.74991 11.4217 9.93429 10.9766 10.2625 10.6484C10.5907 10.3202 11.0358 10.1358 11.4999 10.1358C11.8738 10.137 12.2372 10.2598 12.5351 10.4858L10.0999 12.9209C9.87396 12.623 9.75111 12.2597 9.74991 11.8858ZM11.4999 6.63577C12.0642 6.63624 12.6269 6.69489 13.1791 6.81077C13.9553 6.97742 14.7055 7.24789 15.4095 7.6149L13.7854 9.23804C13.1524 8.68577 12.34 8.38282 11.4999 8.38578C10.5717 8.38578 9.68141 8.75453 9.02503 9.41091C8.36865 10.0673 7.9999 10.9575 7.9999 11.8858C7.99694 12.7259 8.29988 13.5383 8.85216 14.1713L7.11964 15.9038C6.34431 15.451 5.62429 14.9096 4.97412 14.2903C4.20054 13.5674 3.50945 12.761 2.91348 11.8858C3.81649 10.5584 6.87639 6.63577 11.4999 6.63577Z" fill="#6B7280"/>
<path d="M11.4999 17.1359C11.4272 17.1359 11.3581 17.1359 11.2881 17.1306C11.059 17.1139 10.8325 17.188 10.6576 17.3369C10.4826 17.4858 10.3732 17.6975 10.353 17.9263C10.3328 18.1551 10.4034 18.3827 10.5495 18.56C10.6957 18.7372 10.9056 18.8499 11.1341 18.8736C11.2566 18.885 11.3774 18.8859 11.4999 18.8859C18.0475 18.8859 21.7304 12.5858 21.8844 12.3233C21.9601 12.191 21.9999 12.0413 21.9999 11.8889C21.9999 11.7365 21.9601 11.5867 21.8844 11.4544C21.3808 10.625 20.7945 9.84874 20.1344 9.13743C19.9744 8.98457 19.7624 8.89802 19.5411 8.89521C19.3198 8.89241 19.1057 8.97356 18.9419 9.12232C18.778 9.27108 18.6766 9.4764 18.6581 9.69693C18.6396 9.91746 18.7053 10.1368 18.8421 10.3108C19.2927 10.8062 19.7081 11.3325 20.0854 11.8858C19.1781 13.215 16.1103 17.1359 11.4999 17.1359Z" fill="#6B7280"/>
</svg>
