<svg width="20" height="20" viewBox="0 0 20 20" fill="none" xmlns="http://www.w3.org/2000/svg">
<path d="M17.5001 4.16683H15.0001V3.3335C15.0001 2.67046 14.7367 2.03457 14.2678 1.56573C13.799 1.09689 13.1631 0.833496 12.5001 0.833496H7.50008C6.83704 0.833496 6.20116 1.09689 5.73231 1.56573C5.26347 2.03457 5.00008 2.67046 5.00008 3.3335V4.16683H2.50008C2.27907 4.16683 2.06711 4.25463 1.91083 4.41091C1.75455 4.56719 1.66675 4.77915 1.66675 5.00016C1.66675 5.22118 1.75455 5.43314 1.91083 5.58942C2.06711 5.7457 2.27907 5.8335 2.50008 5.8335H2.55008L3.14175 15.2585C3.20757 16.3182 3.67545 17.3128 4.44984 18.0392C5.22422 18.7655 6.24668 19.1689 7.30841 19.1668H12.7084C13.7701 19.1689 14.7926 18.7655 15.567 18.0392C16.3414 17.3128 16.8093 16.3182 16.8751 15.2585L17.4501 5.8335H17.5001C17.7211 5.8335 17.9331 5.7457 18.0893 5.58942C18.2456 5.43314 18.3334 5.22118 18.3334 5.00016C18.3334 4.77915 18.2456 4.56719 18.0893 4.41091C17.9331 4.25463 17.7211 4.16683 17.5001 4.16683ZM6.66675 3.3335C6.66675 3.11248 6.75455 2.90052 6.91083 2.74424C7.06711 2.58796 7.27907 2.50016 7.50008 2.50016H12.5001C12.7211 2.50016 12.9331 2.58796 13.0893 2.74424C13.2456 2.90052 13.3334 3.11248 13.3334 3.3335V4.16683H6.66675V3.3335ZM15.2001 15.1585C15.1598 15.7937 14.8787 16.3896 14.4141 16.8248C13.9496 17.2599 13.3366 17.5014 12.7001 17.5002H7.30008C6.66358 17.5014 6.05056 17.2599 5.58602 16.8248C5.12148 16.3896 4.84039 15.7937 4.80008 15.1585L4.21675 5.8335H15.7834L15.2001 15.1585Z" fill="#6B7280"/>
<path d="M8.33333 8.3335C8.11232 8.3335 7.90036 8.42129 7.74408 8.57757C7.5878 8.73385 7.5 8.94582 7.5 9.16683V14.1668C7.5 14.3878 7.5878 14.5998 7.74408 14.7561C7.90036 14.9124 8.11232 15.0002 8.33333 15.0002C8.55435 15.0002 8.76631 14.9124 8.92259 14.7561C9.07887 14.5998 9.16667 14.3878 9.16667 14.1668V9.16683C9.16667 8.94582 9.07887 8.73385 8.92259 8.57757C8.76631 8.42129 8.55435 8.3335 8.33333 8.3335Z" fill="#6B7280"/>
<path d="M11.6668 8.3335C11.4458 8.3335 11.2339 8.42129 11.0776 8.57757C10.9213 8.73385 10.8335 8.94582 10.8335 9.16683V14.1668C10.8335 14.3878 10.9213 14.5998 11.0776 14.7561C11.2339 14.9124 11.4458 15.0002 11.6668 15.0002C11.8878 15.0002 12.0998 14.9124 12.2561 14.7561C12.4124 14.5998 12.5002 14.3878 12.5002 14.1668V9.16683C12.5002 8.94582 12.4124 8.73385 12.2561 8.57757C12.0998 8.42129 11.8878 8.3335 11.6668 8.3335Z" fill="#6B7280"/>
</svg>
