<svg width="20" height="20" viewBox="0 0 20 20" fill="none" xmlns="http://www.w3.org/2000/svg">
<path d="M3.47014 13.6232C3.31014 13.6232 3.15045 13.5623 3.02826 13.4401C2.7842 13.1961 2.7842 12.8004 3.02826 12.5564L12.7951 2.78949C13.0389 2.54543 13.4348 2.54543 13.6789 2.78949C13.9229 3.03355 13.9229 3.42918 13.6789 3.67324L3.91201 13.4401C3.79014 13.562 3.63014 13.6232 3.47014 13.6232Z" fill="#6B7280"/>
<path d="M2.50526 18.1251C2.46183 18.1251 2.41776 18.1204 2.3737 18.111C2.0362 18.0385 1.8212 17.7063 1.8937 17.3688L2.85933 12.8679C2.93183 12.5304 3.26558 12.316 3.60151 12.3879C3.93901 12.4604 4.15401 12.7926 4.08151 13.1301L3.11589 17.631C3.05308 17.9245 2.7937 18.1251 2.50526 18.1251Z" fill="#6B7280"/>
<path d="M7.00578 17.16C6.84578 17.16 6.68609 17.0991 6.56391 16.9769C6.31984 16.7329 6.31984 16.3372 6.56391 16.0932L16.3308 6.3266C16.5745 6.08254 16.9705 6.08254 17.2145 6.3266C17.4586 6.57066 17.4586 6.96629 17.2145 7.21035L7.44797 16.9769C7.32578 17.0991 7.16578 17.16 7.00578 17.16Z" fill="#6B7280"/>
<path d="M2.50399 18.1248C2.21555 18.1248 1.95649 17.9242 1.89336 17.6308C1.82118 17.2933 2.03586 16.9611 2.37336 16.8886L6.8743 15.923C7.21211 15.8514 7.5443 16.0658 7.61649 16.403C7.68868 16.7405 7.47399 17.0726 7.13649 17.1451L2.63555 18.1108C2.59149 18.1205 2.54743 18.1248 2.50399 18.1248Z" fill="#6B7280"/>
<path d="M15.0047 9.16023C14.8447 9.16023 14.6847 9.0993 14.5628 8.97711L11.0275 5.4418C10.7835 5.19773 10.7835 4.80211 11.0275 4.55805C11.2713 4.31398 11.6675 4.31398 11.9113 4.55805L15.4466 8.09336C15.6907 8.33742 15.6907 8.73305 15.4466 8.97711C15.3247 9.0993 15.1647 9.16023 15.0047 9.16023Z" fill="#6B7280"/>
<path d="M16.7724 7.39191C16.6124 7.39191 16.4524 7.33098 16.3302 7.20879C16.0862 6.96473 16.0862 6.5691 16.3302 6.32473C16.6781 5.97691 16.8696 5.50598 16.8696 4.9991C16.8696 4.49223 16.6781 4.02129 16.3302 3.67348C15.9821 3.32535 15.5112 3.13379 15.0043 3.13379C14.4974 3.13379 14.0265 3.32535 13.6787 3.67348C13.4349 3.91754 13.0393 3.91785 12.7946 3.67348C12.5506 3.42941 12.5506 3.03379 12.7946 2.78941C13.3784 2.20535 14.1631 1.88379 15.0043 1.88379C15.8452 1.88379 16.6302 2.20535 17.214 2.78941C17.7981 3.37316 18.1196 4.15785 18.1196 4.9991C18.1196 5.84035 17.7981 6.62504 17.214 7.20879C17.0924 7.33066 16.9324 7.39191 16.7724 7.39191Z" fill="#6B7280"/>
</svg>
