<svg width="15" height="16" viewBox="0 0 15 16" fill="none" xmlns="http://www.w3.org/2000/svg">
<path d="M14.4926 3.91026C14.4002 2.37359 13.1171 1.16969 11.5716 1.16969H10.8192V0.584843C10.8192 0.26201 10.5572 0 10.2344 0C9.91153 0 9.64952 0.26201 9.64952 0.584843V1.16969H4.97077V0.584843C4.97077 0.26201 4.70876 0 4.38593 0C4.0631 0 3.80109 0.26201 3.80109 0.584843V1.16969H3.04868C1.50294 1.16969 0.219799 2.37359 0.127686 3.91026C-0.04572 6.80056 -0.0425034 9.73237 0.137336 12.6241C0.228571 14.0927 1.40498 15.2691 2.87352 15.3603C4.34528 15.4518 5.82757 15.4975 7.30985 15.4975C8.79184 15.4975 10.2744 15.4518 11.7462 15.3603C13.2147 15.2691 14.3911 14.0927 14.4824 12.6241C14.6625 9.73384 14.6657 6.80231 14.4926 3.91026ZM13.3153 12.5516C13.2603 13.4327 12.5547 14.1383 11.674 14.193C8.77839 14.3728 5.8419 14.3728 2.94634 14.193C2.06527 14.138 1.35966 13.4324 1.30498 12.5516C1.16666 10.3283 1.13829 8.08165 1.21228 5.84843H13.4083C13.482 8.08253 13.4536 10.3292 13.3153 12.5516ZM4.38593 3.50906C4.70876 3.50906 4.97077 3.24705 4.97077 2.92422V2.33937H9.64952V2.92422C9.64952 3.24705 9.91153 3.50906 10.2344 3.50906C10.5572 3.50906 10.8192 3.24705 10.8192 2.92422V2.33937H11.5716C12.4995 2.33937 13.2697 3.06019 13.325 3.98015C13.3387 4.21233 13.3446 4.44598 13.356 4.67874H1.26433C1.27603 4.44598 1.28158 4.21233 1.29533 3.98015C1.35059 3.06019 2.12054 2.33937 3.04868 2.33937H3.80109V2.92422C3.80109 3.24705 4.0631 3.50906 4.38593 3.50906Z" fill="white"/>
<path d="M4.3863 9.35951C4.8708 9.35951 5.26356 8.96675 5.26356 8.48225C5.26356 7.99775 4.8708 7.60498 4.3863 7.60498C3.9018 7.60498 3.50903 7.99775 3.50903 8.48225C3.50903 8.96675 3.9018 9.35951 4.3863 9.35951Z" fill="white"/>
<path d="M7.31086 9.35951C7.79536 9.35951 8.18812 8.96675 8.18812 8.48225C8.18812 7.99775 7.79536 7.60498 7.31086 7.60498C6.82636 7.60498 6.43359 7.99775 6.43359 8.48225C6.43359 8.96675 6.82636 9.35951 7.31086 9.35951Z" fill="white"/>
<path d="M4.3863 12.2804C4.8708 12.2804 5.26356 11.8876 5.26356 11.4031C5.26356 10.9186 4.8708 10.5259 4.3863 10.5259C3.9018 10.5259 3.50903 10.9186 3.50903 11.4031C3.50903 11.8876 3.9018 12.2804 4.3863 12.2804Z" fill="white"/>
<path d="M10.2344 9.35951C10.7189 9.35951 11.1117 8.96675 11.1117 8.48225C11.1117 7.99775 10.7189 7.60498 10.2344 7.60498C9.74994 7.60498 9.35718 7.99775 9.35718 8.48225C9.35718 8.96675 9.74994 9.35951 10.2344 9.35951Z" fill="white"/>
</svg>
