<svg width="20" height="20" viewBox="0 0 20 20" fill="none" xmlns="http://www.w3.org/2000/svg">
<path d="M1.66755 5.51858V14.3709C1.66755 15.2983 2.2628 16.2258 3.19814 16.5629L7.44989 18.1648C7.70497 18.2491 7.96005 18.3334 8.30022 18.3334C8.72539 18.3334 9.23555 18.1648 9.66072 17.9119C9.8308 17.7432 10.0859 17.5747 10.171 17.406H13.4022C14.6778 17.406 15.7832 16.3943 15.7832 15.0454V14.2023C15.7832 13.8651 15.5281 13.5278 15.1029 13.5278C14.6778 13.5278 14.4227 13.7808 14.4227 14.2023V15.0454C14.4227 15.6356 13.9125 16.0571 13.4022 16.0571H10.5961V3.91673H13.4022C13.9975 3.91673 14.4227 4.33827 14.4227 4.92843V5.7715C14.4227 6.10874 14.6778 6.44597 15.1029 6.44597C15.5281 6.44597 15.7832 6.10874 15.7832 5.7715V4.92843C15.7832 3.6638 14.7628 2.56779 13.4022 2.56779H10.171C10.0009 2.39918 9.8308 2.23056 9.66072 2.06194C8.98047 1.6404 8.21514 1.55609 7.44989 1.80902L3.19814 3.41088C2.3478 3.6638 1.66755 4.59119 1.66755 5.51858Z" fill="#6B7280"/>
<path d="M15.953 12.3476C16.1231 12.3476 16.2932 12.2634 16.3782 12.179L18.0789 10.4929C18.1639 10.4085 18.1639 10.3243 18.249 10.3243C18.249 10.2399 18.334 10.1556 18.334 10.0714C18.334 9.98702 18.334 9.90269 18.249 9.81844C18.249 9.7341 18.1639 9.64977 18.0789 9.64977L16.3782 7.96362C16.1231 7.71069 15.6979 7.71069 15.4428 7.96362C15.1877 8.21654 15.1877 8.6381 15.4428 8.89102L16.0381 9.48119H12.5517C12.2115 9.48119 11.8714 9.7341 11.8714 10.1556C11.8714 10.5772 12.2115 10.6615 12.5517 10.6615H16.1231L15.5279 11.2516C15.2728 11.5045 15.2728 11.9261 15.5279 12.179C15.6129 12.2634 15.783 12.3476 15.953 12.3476Z" fill="#6B7280"/>
</svg>
