<svg width="24" height="24" viewBox="0 0 24 24" fill="none" xmlns="http://www.w3.org/2000/svg">
<path fill-rule="evenodd" clip-rule="evenodd" d="M11.998 8.30453C14.0446 8.30455 15.7038 9.96404 15.7041 12.0106C15.7041 14.0574 14.0448 15.7167 11.998 15.7167C9.95121 15.7167 8.29195 14.0574 8.29195 12.0106C8.29222 9.96403 9.95138 8.30453 11.998 8.30453ZM11.998 10.0345C10.9066 10.0345 10.0222 10.9192 10.0219 12.0106C10.0219 13.1022 10.9064 13.9867 11.998 13.9867C13.0896 13.9867 13.9741 13.1022 13.9741 12.0106C13.9738 10.9192 13.0895 10.0345 11.998 10.0345Z" fill="#6B7280"/>
<path fill-rule="evenodd" clip-rule="evenodd" d="M10.4816 5.00984C14.2785 4.33603 18.4564 5.74514 22.1137 10.8283C22.6103 11.5187 22.6401 12.474 22.1173 13.1893C20.3919 15.5488 17.4853 18.2205 13.8848 18.9535C10.1813 19.7071 6.00619 18.3614 1.94144 13.2049C1.41521 12.5367 1.33324 11.5671 1.85337 10.8223C3.63753 8.26862 6.78148 5.66662 10.4816 5.00984ZM20.7107 11.8381C17.3717 7.19718 13.8164 6.17528 10.7844 6.71328C7.65563 7.26855 4.87268 9.52193 3.2721 11.8128C3.22095 11.886 3.20898 12.0193 3.29985 12.1349C7.07072 16.9185 10.6342 17.8497 13.5398 17.2585C16.5485 16.646 19.1239 14.3505 20.7203 12.1674C20.7806 12.0846 20.7912 11.95 20.7107 11.8381Z" fill="#6B7280"/>
</svg>
