<svg width="20" height="20" viewBox="0 0 20 20" fill="none" xmlns="http://www.w3.org/2000/svg">
<path d="M9.16667 15.8333C7.84813 15.8333 6.5592 15.4423 5.46287 14.7098C4.36654 13.9773 3.51206 12.9361 3.00747 11.7179C2.50289 10.4997 2.37087 9.15928 2.6281 7.86607C2.88534 6.57286 3.52027 5.38497 4.45262 4.45262C5.38497 3.52027 6.57286 2.88534 7.86607 2.6281C9.15928 2.37087 10.4997 2.50289 11.7179 3.00747C12.9361 3.51206 13.9773 4.36654 14.7098 5.46287C15.4423 6.5592 15.8333 7.84813 15.8333 9.16667C15.8314 10.9342 15.1283 12.6287 13.8785 13.8785C12.6287 15.1283 10.9342 15.8314 9.16667 15.8333ZM9.16667 4.16667C8.17776 4.16667 7.21107 4.45991 6.38882 5.00932C5.56657 5.55873 4.92571 6.33962 4.54727 7.25325C4.16883 8.16688 4.06982 9.17222 4.26274 10.1421C4.45567 11.112 4.93187 12.0029 5.63114 12.7022C6.3304 13.4015 7.22131 13.8777 8.19122 14.0706C9.16112 14.2635 10.1665 14.1645 11.0801 13.7861C11.9937 13.4076 12.7746 12.7668 13.324 11.9445C13.8734 11.1223 14.1667 10.1556 14.1667 9.16667C14.1653 7.84099 13.6381 6.56999 12.7007 5.6326C11.7633 4.6952 10.4923 4.16799 9.16667 4.16667Z" fill="white"/>
<path d="M16.6667 17.4995C16.4457 17.4995 16.2338 17.4117 16.0775 17.2554L12.7442 13.922C12.5924 13.7649 12.5084 13.5544 12.5103 13.3359C12.5122 13.1174 12.5998 12.9083 12.7543 12.7538C12.9088 12.5993 13.1178 12.5117 13.3363 12.5098C13.5548 12.5079 13.7653 12.5919 13.9225 12.7437L17.2558 16.077C17.3724 16.1936 17.4517 16.342 17.4838 16.5037C17.516 16.6653 17.4995 16.8328 17.4364 16.9851C17.3734 17.1373 17.2666 17.2675 17.1296 17.359C16.9926 17.4506 16.8315 17.4995 16.6667 17.4995Z" fill="white"/>
</svg>
