<svg width="22" height="22" viewBox="0 0 22 22" fill="none" xmlns="http://www.w3.org/2000/svg">
<g clip-path="url(#clip0_304_1782)">
<path d="M21.0338 12.7486L20.1185 11.9952C19.4916 11.4791 19.4927 10.5199 20.1186 10.0048L21.0338 9.25139C21.685 8.71518 21.8516 7.79573 21.4299 7.06505L19.6227 3.93495C19.2008 3.20431 18.3211 2.88892 17.5312 3.1848L16.4211 3.6007C15.6607 3.88549 14.8306 3.40514 14.6973 2.6055L14.5025 1.43614C14.3638 0.604012 13.6508 0 12.8071 0H9.19283C8.34913 0 7.63611 0.604012 7.49745 1.43619L7.30255 2.6055C7.16904 3.40656 6.33777 3.88502 5.57881 3.60074L4.46871 3.1848C3.67882 2.88892 2.79916 3.20435 2.37725 3.93495L0.570115 7.06501C0.148291 7.79561 0.314838 8.71509 0.966201 9.25134L1.88139 10.0048C2.50839 10.5209 2.50715 11.48 1.88139 11.9952L0.966158 12.7486C0.314838 13.2848 0.148248 14.2043 0.570072 14.9349L2.37725 18.065C2.79912 18.7956 3.6786 19.111 4.46871 18.8152L5.57877 18.3993C6.33927 18.1143 7.16926 18.595 7.3025 19.3945L7.49741 20.5637C7.63611 21.396 8.34914 22 9.19278 22H12.8071C13.6507 22 14.3638 21.396 14.5024 20.5638L14.6973 19.3945C14.8308 18.5937 15.662 18.1149 16.4211 18.3993L17.5312 18.8152C18.3213 19.1111 19.2008 18.7957 19.6227 18.0651L21.4299 14.9349C21.8516 14.2043 21.685 13.2848 21.0338 12.7486ZM18.1342 17.2057L17.0241 16.7898C15.2495 16.125 13.3129 17.2465 13.002 19.1119L12.8071 20.2812H9.19283L8.99792 19.1119C8.68644 17.2429 6.74696 16.1263 4.97583 16.7898L3.86573 17.2057L2.0586 14.0756L2.97379 13.3222C4.43683 12.1177 4.43378 9.87976 2.97379 8.67784L2.0586 7.92443L3.86578 4.79432L4.97583 5.21022C6.75044 5.87495 8.68704 4.75346 8.99792 2.88806L9.19278 1.71875H12.8071L13.002 2.88806C13.3135 4.75729 15.2531 5.87357 17.0241 5.21022L18.1342 4.79432L19.9417 7.924C19.9417 7.924 19.9416 7.92412 19.9412 7.92438L19.0261 8.6778C17.5631 9.88212 17.566 12.1202 19.0261 13.3221L19.9413 14.0755L18.1342 17.2057ZM11 6.7604C8.66225 6.7604 6.76037 8.66228 6.76037 11C6.76037 13.3377 8.66225 15.2396 11 15.2396C13.3377 15.2396 15.2396 13.3377 15.2396 11C15.2396 8.66228 13.3377 6.7604 11 6.7604ZM11 13.5208C9.60997 13.5208 8.47912 12.39 8.47912 11C8.47912 9.61 9.60997 8.47915 11 8.47915C12.39 8.47915 13.5208 9.61 13.5208 11C13.5208 12.39 12.39 13.5208 11 13.5208Z" fill="#6B7280"/>
</g>
<defs>
<clipPath id="clip0_304_1782">
<rect width="22" height="22" fill="white"/>
</clipPath>
</defs>
</svg>
