<svg width="340" height="211" viewBox="0 0 340 211" fill="none" xmlns="http://www.w3.org/2000/svg">
<path d="M269.5 0C282.479 0 293 10.5213 293 23.5C293 36.4787 303.521 47 316.5 47C329.479 47 340 57.5213 340 70.5V169.4C340 183.961 340 191.242 337.166 196.804C334.673 201.696 330.696 205.673 325.804 208.166C320.242 211 312.961 211 298.4 211H41.6C27.0386 211 19.758 211 14.1962 208.166C9.30403 205.673 5.32654 201.696 2.83383 196.804C0 191.242 0 183.961 0 169.4V41.6C0 27.0386 0 19.758 2.83383 14.1962C5.32654 9.30403 9.30403 5.32654 14.1962 2.83383C19.758 0 27.0386 0 41.6 0H269.5Z" fill="white"/>
</svg>
