<svg width="21" height="24" viewBox="0 0 21 24" fill="none" xmlns="http://www.w3.org/2000/svg">
<path fill-rule="evenodd" clip-rule="evenodd" d="M10.5 9.33333C12.433 9.33333 14 7.76633 14 5.83333C14 3.90034 12.433 2.33333 10.5 2.33333C8.56691 2.33333 6.99996 3.90034 6.99996 5.83333C6.99996 7.76633 8.56691 9.33333 10.5 9.33333ZM10.5 11.6667C13.7216 11.6667 16.3333 9.05499 16.3333 5.83333C16.3333 2.61168 13.7216 0 10.5 0C7.2783 0 4.66663 2.61168 4.66663 5.83333C4.66663 9.05499 7.2783 11.6667 10.5 11.6667Z" fill="#6B7280"/>
<path fill-rule="evenodd" clip-rule="evenodd" d="M7 16.3333C4.42267 16.3333 2.33333 18.4227 2.33333 21V22.1667C2.33333 22.811 1.81099 23.3333 1.16667 23.3333C0.52234 23.3333 0 22.811 0 22.1667V21C0 17.134 3.134 14 7 14H14C17.866 14 21 17.134 21 21V22.1667C21 22.811 20.4777 23.3333 19.8333 23.3333C19.189 23.3333 18.6667 22.811 18.6667 22.1667V21C18.6667 18.4227 16.5773 16.3333 14 16.3333H7Z" fill="#6B7280"/>
</svg>
