<svg width="24" height="24" viewBox="0 0 24 24" fill="none" xmlns="http://www.w3.org/2000/svg">
<path d="M17 23H7C5.93948 22.9989 4.92272 22.5771 4.17282 21.8272C3.42292 21.0773 3.00113 20.0605 3 19V13C3.00113 11.9395 3.42292 10.9227 4.17282 10.1728C4.92272 9.42292 5.93948 9.00113 7 9H17C18.0605 9.00113 19.0773 9.42292 19.8272 10.1728C20.5771 10.9227 20.9989 11.9395 21 13V19C20.9989 20.0605 20.5771 21.0773 19.8272 21.8272C19.0773 22.5771 18.0605 22.9989 17 23ZM7 11C6.46975 11.0006 5.9614 11.2115 5.58646 11.5865C5.21151 11.9614 5.00061 12.4698 5 13V19C5.00061 19.5302 5.21151 20.0386 5.58646 20.4135C5.9614 20.7885 6.46975 20.9994 7 21H17C17.5302 20.9994 18.0386 20.7885 18.4135 20.4135C18.7885 20.0386 18.9994 19.5302 19 19V13C18.9994 12.4698 18.7885 11.9614 18.4135 11.5865C18.0386 11.2115 17.5302 11.0006 17 11H7Z" fill="#6B7280" stroke="white" stroke-width="0.4"/>
<path d="M16.5 11H7.5C7.36867 11 7.23862 10.9742 7.11728 10.9239C6.99594 10.8737 6.88568 10.8 6.79282 10.7072C6.69995 10.6143 6.62629 10.5041 6.57605 10.3827C6.52581 10.2614 6.49997 10.1313 6.5 10V6.5C6.5 5.04131 7.07946 3.64236 8.11091 2.61091C9.14236 1.57946 10.5413 1 12 1C13.4587 1 14.8576 1.57946 15.8891 2.61091C16.9205 3.64236 17.5 5.04131 17.5 6.5V10C17.5 10.1313 17.4742 10.2614 17.4239 10.3827C17.3737 10.5041 17.3 10.6143 17.2072 10.7072C17.1143 10.8 17.0041 10.8737 16.8827 10.9239C16.7614 10.9742 16.6313 11 16.5 11ZM8.5 9H15.5V6.5C15.5 5.57174 15.1313 4.6815 14.4749 4.02513C13.8185 3.36875 12.9283 3 12 3C11.0717 3 10.1815 3.36875 9.52513 4.02513C8.86875 4.6815 8.5 5.57174 8.5 6.5V9Z" fill="#6B7280" stroke="white" stroke-width="0.4"/>
<path d="M12 16.5C12.8284 16.5 13.5 15.8284 13.5 15C13.5 14.1716 12.8284 13.5 12 13.5C11.1716 13.5 10.5 14.1716 10.5 15C10.5 15.8284 11.1716 16.5 12 16.5Z" fill="#6B7280" stroke="white" stroke-width="0.4"/>
</svg>
