<svg width="21" height="19" viewBox="0 0 21 19" fill="none" xmlns="http://www.w3.org/2000/svg">
<path fill-rule="evenodd" clip-rule="evenodd" d="M10.2757 10.9315C9.63787 10.9315 9.00189 10.7208 8.46984 10.2994L4.19345 6.85156C3.88547 6.60365 3.8378 6.15265 4.08475 5.84563C4.33361 5.53956 4.78366 5.49093 5.09068 5.73789L9.36326 9.18189C9.90007 9.60714 10.6562 9.60714 11.1968 9.17807L15.4265 5.73979C15.7335 5.48903 16.1836 5.5367 16.4334 5.84372C16.6822 6.14979 16.6355 6.59984 16.3294 6.84965L12.0921 10.2937C11.5563 10.7189 10.9155 10.9315 10.2757 10.9315Z" fill="#6B7280"/>
<path fill-rule="evenodd" clip-rule="evenodd" d="M14.9307 17.1628C14.9326 17.1609 14.9402 17.1628 14.9459 17.1628C16.0339 17.1628 16.9988 16.7738 17.7387 16.0348C18.5978 15.1795 19.0698 13.9505 19.0698 12.5746V6.02605C19.0698 3.36295 17.3287 1.43023 14.9307 1.43023H5.56933C3.1713 1.43023 1.43023 3.36295 1.43023 6.02605V12.5746C1.43023 13.9505 1.90316 15.1795 2.7613 16.0348C3.50121 16.7738 4.46709 17.1628 5.55407 17.1628H14.9307ZM5.55121 18.593C4.07998 18.593 2.76607 18.0591 1.75156 17.0484C0.621674 15.9213 0 14.3328 0 12.5746V6.02605C0 2.59063 2.39421 0 5.56933 0H14.9307C18.1058 0 20.5 2.59063 20.5 6.02605V12.5746C20.5 14.3328 19.8783 15.9213 18.7484 17.0484C17.7349 18.0581 16.42 18.593 14.9459 18.593H5.55121Z" fill="#6B7280"/>
</svg>
